<svg width="130" height="130" viewBox="0 0 130 130" fill="none" xmlns="http://www.w3.org/2000/svg">
<g clip-path="url(#clip0_1286_2)">
<path d="M24.5934 46.9844C17.9599 45.5046 16.091 36.9182 21.5037 32.7886L42.2292 16.9758C49.722 11.2592 59.3424 9.14294 68.5252 11.1915L93.9574 16.8649C100.591 18.3448 102.46 26.9312 97.0471 31.0608L76.3216 46.8736C68.8288 52.5902 59.2083 54.7064 50.0255 52.6579L24.5934 46.9844Z" fill="#FE5900"/>
<path d="M109.959 37.5845C108.736 59.6421 86.8941 57.8396 64.8366 56.6175C42.779 55.3953 13.4684 70.8889 14.6905 48.8314C15.9126 26.7738 40.2238 11.1843 62.2814 12.4064C84.339 13.6286 111.181 15.527 109.959 37.5845Z" fill="url(#paint0_linear_1286_2)"/>
<path d="M5.72785 54.2361C4.92749 49.2082 6.35158 44.0592 9.66363 40.1488L10.9724 38.6041L16.4798 32.8565L16.4947 41.8958L5.72785 54.2361Z" fill="#2C2C2C" stroke="#2C2C2C"/>
<path d="M95.244 13.552L98.6554 14.1376C103.899 15.0389 108.663 17.7412 112.128 21.7785C114.589 24.6463 116.302 28.0795 117.111 31.771L117.432 33.2385L103.793 25.5596L95.244 13.552Z" fill="#2C2C2C" stroke="#2C2C2C"/>
<path d="M24.5929 46.9844C17.9594 45.5046 16.0906 36.9182 21.5032 32.7886L42.2287 16.9758C49.7215 11.2592 59.342 9.14294 68.5247 11.1915L93.957 16.8649C100.59 18.3448 102.459 26.9312 97.0467 31.0608L76.3211 46.8736C68.8284 52.5902 59.2079 54.7064 50.0251 52.6579L24.5929 46.9844Z" stroke="#2C2C2C" stroke-width="8" stroke-miterlimit="10"/>
<path d="M64.6214 116.139C70.3163 117.398 75.3983 112.307 74.1511 106.593L67.5881 76.5257C64.9255 64.3279 55.4388 54.8001 43.2809 52.1136L19.1171 46.7742C13.4222 45.5158 8.34018 50.6064 9.58734 56.3201L16.1504 86.3877C18.813 98.5856 28.2997 108.113 40.4576 110.8L64.6214 116.139Z" fill="#FF6B11"/>
<path d="M17.7435 47.9992C38.6939 40.9916 56.6802 57.4467 62.7606 67.0174C69.7682 87.9679 91.1658 107.994 70.2153 115.001C49.2648 122.009 26.1228 107.702 19.1152 86.7517C12.1076 65.8012 -3.20703 55.0068 17.7435 47.9992Z" fill="url(#paint1_linear_1286_2)"/>
<path d="M64.6214 116.139C70.3163 117.398 75.3983 112.307 74.1511 106.593L67.5881 76.5257C64.9255 64.3279 55.4388 54.8001 43.2809 52.1136L19.1171 46.7742C13.4222 45.5158 8.34018 50.6064 9.58734 56.3201L16.1504 86.3877C18.813 98.5856 28.2997 108.113 40.4576 110.8L64.6214 116.139Z" stroke="#2C2C2C" stroke-width="8" stroke-miterlimit="10" stroke-linecap="round"/>
<path d="M88.2973 111.567C83.6455 115.068 76.9469 112.576 75.7039 106.882L69.1517 76.8636C66.475 64.6008 71.1862 51.8921 81.2042 44.352L101.4 29.1511C106.052 25.6499 112.751 28.142 113.994 33.8362L120.546 63.8542C123.223 76.117 118.511 88.8257 108.494 96.3658L88.2973 111.567Z" fill="#FE7A29"/>
<path d="M77.9654 108.922C63.0045 92.6682 64.5258 67.4086 70.7739 57.9466C87.0281 42.9857 95.2763 16.3369 110.237 32.5911C125.198 48.8453 126.14 78.2028 109.886 93.1638C93.6313 108.125 87.314 120.958 77.9654 108.922Z" fill="url(#paint2_linear_1286_2)"/>
<path d="M88.2978 111.567C83.646 115.068 76.9474 112.576 75.7044 106.882L69.1522 76.8641C66.4755 64.6013 71.1867 51.8926 81.2047 44.3525L101.401 29.1516C106.053 25.6504 112.751 28.1425 113.994 33.8367L120.546 63.8547C123.223 76.1175 118.512 88.8262 108.494 96.3663L88.2978 111.567Z" stroke="#2C2C2C" stroke-width="8" stroke-miterlimit="10" stroke-linecap="round"/>
<path d="M69.6285 121.48L59.1429 119.093L76.6431 113.093L94.1431 112.093L85.8516 118.139C81.1808 121.545 75.2649 122.764 69.6285 121.48Z" fill="#2C2C2C"/>
<path d="M60.6956 57.4634L67.0578 56.4315L64.7215 62.1498L60.6956 57.4634Z" fill="#2C2C2C" stroke="#2C2C2C"/>
</g>
<defs>
<linearGradient id="paint0_linear_1286_2" x1="80.3624" y1="11.4071" x2="75.9367" y2="91.2847" gradientUnits="userSpaceOnUse">
<stop stop-color="#FFAD5B" stop-opacity="0.5"/>
<stop offset="1" stop-color="#D33F49" stop-opacity="0"/>
</linearGradient>
<linearGradient id="paint1_linear_1286_2" x1="28.3704" y1="82.139" x2="59.4586" y2="63.33" gradientUnits="userSpaceOnUse">
<stop stop-color="#FFAD5B" stop-opacity="0.5"/>
<stop offset="1" stop-color="#D33F49" stop-opacity="0"/>
</linearGradient>
<linearGradient id="paint2_linear_1286_2" x1="109.715" y1="69.1186" x2="77.7906" y2="57.8352" gradientUnits="userSpaceOnUse">
<stop stop-color="#F6AB31" stop-opacity="0.5"/>
<stop offset="1" stop-color="#D33F49" stop-opacity="0"/>
</linearGradient>
<clipPath id="clip0_1286_2">
<rect width="130" height="130" fill="white"/>
</clipPath>
</defs>
</svg>
